<mxfile host="app.diagrams.net" agent="Mozilla/5.0 (Windows NT 10.0; Win64; x64) AppleWebKit/537.36 (KHTML, like Gecko) Chrome/131.0.0.0 Safari/537.36" version="24.9.3">
  <diagram name="Page-1" id="7c7j97ExM4J1tIepNCJn">
    <mxGraphModel dx="1034" dy="679" grid="0" gridSize="10" guides="1" tooltips="1" connect="1" arrows="1" fold="1" page="0" pageScale="1" pageWidth="850" pageHeight="1100" math="0" shadow="0">
      <root>
        <mxCell id="0" />
        <mxCell id="1" parent="0" />
        <mxCell id="oGrtgn9L7tVtQ5_F4s7t-10" style="edgeStyle=orthogonalEdgeStyle;rounded=0;orthogonalLoop=1;jettySize=auto;html=1;exitX=0.5;exitY=0;exitDx=0;exitDy=0;entryX=0.5;entryY=0;entryDx=0;entryDy=0;" parent="1" source="oGrtgn9L7tVtQ5_F4s7t-2" target="oGrtgn9L7tVtQ5_F4s7t-5" edge="1">
          <mxGeometry relative="1" as="geometry">
            <Array as="points">
              <mxPoint x="7" y="148" />
              <mxPoint x="296" y="148" />
            </Array>
          </mxGeometry>
        </mxCell>
        <mxCell id="onGUmNa2HDrF9_WzgU1q-9" style="edgeStyle=orthogonalEdgeStyle;rounded=0;orthogonalLoop=1;jettySize=auto;html=1;exitX=1;exitY=0.5;exitDx=0;exitDy=0;entryX=0;entryY=0.5;entryDx=0;entryDy=0;" parent="1" source="oGrtgn9L7tVtQ5_F4s7t-2" target="oGrtgn9L7tVtQ5_F4s7t-9" edge="1">
          <mxGeometry relative="1" as="geometry" />
        </mxCell>
        <mxCell id="oGrtgn9L7tVtQ5_F4s7t-2" value="&lt;b&gt;Tooth Fairy&lt;/b&gt;" style="html=1;whiteSpace=wrap;" parent="1" vertex="1">
          <mxGeometry x="-48" y="180" width="110" height="50" as="geometry" />
        </mxCell>
        <mxCell id="oGrtgn9L7tVtQ5_F4s7t-16" style="edgeStyle=orthogonalEdgeStyle;rounded=0;orthogonalLoop=1;jettySize=auto;html=1;exitX=0.5;exitY=0;exitDx=0;exitDy=0;entryX=0.5;entryY=1;entryDx=0;entryDy=0;" parent="1" source="oGrtgn9L7tVtQ5_F4s7t-3" target="oGrtgn9L7tVtQ5_F4s7t-4" edge="1">
          <mxGeometry relative="1" as="geometry" />
        </mxCell>
        <mxCell id="oGrtgn9L7tVtQ5_F4s7t-3" value="&lt;b&gt;Children&lt;/b&gt;" style="html=1;whiteSpace=wrap;" parent="1" vertex="1">
          <mxGeometry x="-48" y="444" width="110" height="50" as="geometry" />
        </mxCell>
        <mxCell id="oGrtgn9L7tVtQ5_F4s7t-17" style="edgeStyle=orthogonalEdgeStyle;rounded=0;orthogonalLoop=1;jettySize=auto;html=1;exitX=0.5;exitY=0;exitDx=0;exitDy=0;entryX=0.5;entryY=1;entryDx=0;entryDy=0;" parent="1" source="oGrtgn9L7tVtQ5_F4s7t-4" target="oGrtgn9L7tVtQ5_F4s7t-2" edge="1">
          <mxGeometry relative="1" as="geometry" />
        </mxCell>
        <mxCell id="oGrtgn9L7tVtQ5_F4s7t-4" value="&lt;b&gt;Tooth&lt;/b&gt;" style="html=1;whiteSpace=wrap;" parent="1" vertex="1">
          <mxGeometry x="-48" y="310" width="110" height="50" as="geometry" />
        </mxCell>
        <mxCell id="onGUmNa2HDrF9_WzgU1q-5" style="edgeStyle=orthogonalEdgeStyle;rounded=0;orthogonalLoop=1;jettySize=auto;html=1;exitX=0;exitY=0.5;exitDx=0;exitDy=0;entryX=0.5;entryY=0;entryDx=0;entryDy=0;" parent="1" source="oGrtgn9L7tVtQ5_F4s7t-5" target="oGrtgn9L7tVtQ5_F4s7t-8" edge="1">
          <mxGeometry relative="1" as="geometry" />
        </mxCell>
        <mxCell id="onGUmNa2HDrF9_WzgU1q-6" style="edgeStyle=orthogonalEdgeStyle;rounded=0;orthogonalLoop=1;jettySize=auto;html=1;exitX=1;exitY=0.5;exitDx=0;exitDy=0;entryX=0.5;entryY=0;entryDx=0;entryDy=0;" parent="1" source="oGrtgn9L7tVtQ5_F4s7t-5" target="oGrtgn9L7tVtQ5_F4s7t-7" edge="1">
          <mxGeometry relative="1" as="geometry" />
        </mxCell>
        <mxCell id="oGrtgn9L7tVtQ5_F4s7t-5" value="&lt;b&gt;Identification&lt;/b&gt;&lt;div&gt;&lt;b&gt;service&lt;/b&gt;&lt;/div&gt;" style="html=1;whiteSpace=wrap;" parent="1" vertex="1">
          <mxGeometry x="241" y="180" width="110" height="50" as="geometry" />
        </mxCell>
        <mxCell id="oGrtgn9L7tVtQ5_F4s7t-15" style="edgeStyle=orthogonalEdgeStyle;rounded=0;orthogonalLoop=1;jettySize=auto;html=1;exitX=0.5;exitY=1;exitDx=0;exitDy=0;entryX=0.5;entryY=1;entryDx=0;entryDy=0;" parent="1" source="oGrtgn9L7tVtQ5_F4s7t-6" target="oGrtgn9L7tVtQ5_F4s7t-3" edge="1">
          <mxGeometry relative="1" as="geometry">
            <Array as="points">
              <mxPoint x="409" y="527" />
              <mxPoint x="7" y="527" />
            </Array>
          </mxGeometry>
        </mxCell>
        <mxCell id="oGrtgn9L7tVtQ5_F4s7t-6" value="&lt;b&gt;Payment service&lt;/b&gt;" style="html=1;whiteSpace=wrap;" parent="1" vertex="1">
          <mxGeometry x="351" y="444" width="115" height="50" as="geometry" />
        </mxCell>
        <mxCell id="UBnhvtp0Pl-LXD7bgFIG-4" style="edgeStyle=orthogonalEdgeStyle;rounded=0;orthogonalLoop=1;jettySize=auto;html=1;exitX=0.5;exitY=1;exitDx=0;exitDy=0;entryX=1;entryY=0.5;entryDx=0;entryDy=0;" edge="1" parent="1" source="oGrtgn9L7tVtQ5_F4s7t-7" target="oGrtgn9L7tVtQ5_F4s7t-9">
          <mxGeometry relative="1" as="geometry">
            <Array as="points">
              <mxPoint x="409" y="426" />
              <mxPoint x="298" y="426" />
              <mxPoint x="298" y="469" />
            </Array>
          </mxGeometry>
        </mxCell>
        <mxCell id="oGrtgn9L7tVtQ5_F4s7t-7" value="&lt;b&gt;Estimation&lt;/b&gt;&lt;div&gt;&lt;b&gt;service&lt;/b&gt;&lt;/div&gt;" style="html=1;whiteSpace=wrap;" parent="1" vertex="1">
          <mxGeometry x="351" y="360" width="115" height="50" as="geometry" />
        </mxCell>
        <mxCell id="UBnhvtp0Pl-LXD7bgFIG-3" style="edgeStyle=orthogonalEdgeStyle;rounded=0;orthogonalLoop=1;jettySize=auto;html=1;exitX=0.5;exitY=1;exitDx=0;exitDy=0;entryX=0;entryY=0.5;entryDx=0;entryDy=0;" edge="1" parent="1" source="oGrtgn9L7tVtQ5_F4s7t-8" target="oGrtgn9L7tVtQ5_F4s7t-6">
          <mxGeometry relative="1" as="geometry">
            <Array as="points">
              <mxPoint x="186" y="426" />
              <mxPoint x="298" y="426" />
              <mxPoint x="298" y="469" />
            </Array>
          </mxGeometry>
        </mxCell>
        <mxCell id="oGrtgn9L7tVtQ5_F4s7t-8" value="&lt;b&gt;Distinction&lt;/b&gt;&lt;div&gt;&lt;b&gt;service&lt;/b&gt;&lt;/div&gt;" style="html=1;whiteSpace=wrap;" parent="1" vertex="1">
          <mxGeometry x="131" y="360" width="110" height="50" as="geometry" />
        </mxCell>
        <mxCell id="oGrtgn9L7tVtQ5_F4s7t-9" value="&lt;b&gt;Storage service&lt;/b&gt;" style="html=1;whiteSpace=wrap;" parent="1" vertex="1">
          <mxGeometry x="131" y="444" width="110" height="50" as="geometry" />
        </mxCell>
        <mxCell id="UBnhvtp0Pl-LXD7bgFIG-5" style="edgeStyle=orthogonalEdgeStyle;rounded=0;orthogonalLoop=1;jettySize=auto;html=1;exitX=0.5;exitY=0;exitDx=0;exitDy=0;entryX=0.5;entryY=1;entryDx=0;entryDy=0;startArrow=classic;startFill=1;" edge="1" parent="1" source="onGUmNa2HDrF9_WzgU1q-7" target="oGrtgn9L7tVtQ5_F4s7t-5">
          <mxGeometry relative="1" as="geometry" />
        </mxCell>
        <mxCell id="UBnhvtp0Pl-LXD7bgFIG-7" style="edgeStyle=orthogonalEdgeStyle;rounded=0;orthogonalLoop=1;jettySize=auto;html=1;exitX=0.75;exitY=1;exitDx=0;exitDy=0;entryX=0;entryY=0.5;entryDx=0;entryDy=0;startArrow=classic;startFill=1;" edge="1" parent="1" source="onGUmNa2HDrF9_WzgU1q-7" target="oGrtgn9L7tVtQ5_F4s7t-7">
          <mxGeometry relative="1" as="geometry" />
        </mxCell>
        <mxCell id="UBnhvtp0Pl-LXD7bgFIG-8" style="edgeStyle=orthogonalEdgeStyle;rounded=0;orthogonalLoop=1;jettySize=auto;html=1;exitX=0.25;exitY=1;exitDx=0;exitDy=0;entryX=1;entryY=0.5;entryDx=0;entryDy=0;startArrow=classic;startFill=1;" edge="1" parent="1" source="onGUmNa2HDrF9_WzgU1q-7" target="oGrtgn9L7tVtQ5_F4s7t-8">
          <mxGeometry relative="1" as="geometry" />
        </mxCell>
        <mxCell id="onGUmNa2HDrF9_WzgU1q-7" value="&lt;b&gt;Expert&lt;/b&gt;" style="html=1;whiteSpace=wrap;" parent="1" vertex="1">
          <mxGeometry x="241" y="275" width="110" height="50" as="geometry" />
        </mxCell>
      </root>
    </mxGraphModel>
  </diagram>
</mxfile>
